<svg width="184" height="162" viewBox="0 0 184 162" fill="none" xmlns="http://www.w3.org/2000/svg">
<path d="M79.8047 92.4453C79.8047 90.6589 80.2839 89.276 81.2422 88.2969C82.2005 87.3177 83.5469 86.8281 85.2812 86.8281C86.5 86.8281 87.4896 87.0339 88.25 87.4453C89.0104 87.8568 89.5964 88.5156 90.0078 89.4219L88.5859 89.8438C88.2734 89.2188 87.8411 88.763 87.2891 88.4766C86.7422 88.1901 86.0599 88.0469 85.2422 88.0469C83.9714 88.0469 83 88.4323 82.3281 89.2031C81.6562 89.9688 81.3203 91.0495 81.3203 92.4453C81.3203 93.8359 81.6771 94.9349 82.3906 95.7422C83.1042 96.5443 84.0911 96.9453 85.3516 96.9453C86.0703 96.9453 86.7396 96.8359 87.3594 96.6172C87.9844 96.3984 88.4896 96.1016 88.875 95.7266V93.7422H85.5859V92.4922H90.25V96.2891C89.6667 96.8828 88.9505 97.3438 88.1016 97.6719C87.2578 97.9948 86.3411 98.1562 85.3516 98.1562C84.2005 98.1562 83.2083 97.9271 82.375 97.4688C81.5417 97.0104 80.9036 96.3516 80.4609 95.4922C80.0234 94.6276 79.8047 93.612 79.8047 92.4453ZM92.5312 98V86.4062H93.9375V98H92.5312ZM103.242 93.7656C103.242 95.2448 102.917 96.3464 102.266 97.0703C101.615 97.7943 100.669 98.1562 99.4297 98.1562C98.1953 98.1562 97.263 97.7812 96.6328 97.0312C96.0026 96.276 95.6875 95.1875 95.6875 93.7656C95.6875 90.849 96.9505 89.3906 99.4766 89.3906C100.768 89.3906 101.719 89.7474 102.328 90.4609C102.938 91.1693 103.242 92.2708 103.242 93.7656ZM101.766 93.7656C101.766 92.599 101.591 91.7526 101.242 91.2266C100.898 90.6953 100.318 90.4297 99.5 90.4297C98.6771 90.4297 98.0807 90.7005 97.7109 91.2422C97.3464 91.7786 97.1641 92.6198 97.1641 93.7656C97.1641 94.8802 97.3438 95.7188 97.7031 96.2812C98.0677 96.8385 98.638 97.1172 99.4141 97.1172C100.258 97.1172 100.859 96.8464 101.219 96.3047C101.583 95.763 101.766 94.9167 101.766 93.7656ZM112.148 93.7344C112.148 96.6823 111.112 98.1562 109.039 98.1562C108.398 98.1562 107.865 98.0417 107.438 97.8125C107.016 97.5781 106.672 97.2031 106.406 96.6875H106.391C106.391 96.849 106.38 97.0964 106.359 97.4297C106.339 97.7578 106.323 97.9479 106.312 98H104.953C104.984 97.7188 105 97.138 105 96.2578V86.4062H106.406V89.7109C106.406 90.0495 106.396 90.4479 106.375 90.9062H106.406C106.667 90.3646 107.01 89.9766 107.438 89.7422C107.87 89.5078 108.404 89.3906 109.039 89.3906C110.107 89.3906 110.891 89.75 111.391 90.4688C111.896 91.1875 112.148 92.276 112.148 93.7344ZM110.672 93.7812C110.672 92.599 110.516 91.7526 110.203 91.2422C109.891 90.7318 109.383 90.4766 108.68 90.4766C107.888 90.4766 107.31 90.7474 106.945 91.2891C106.586 91.8307 106.406 92.6901 106.406 93.8672C106.406 94.9766 106.583 95.7969 106.938 96.3281C107.292 96.8542 107.867 97.1172 108.664 97.1172C109.372 97.1172 109.883 96.8568 110.195 96.3359C110.513 95.8099 110.672 94.9583 110.672 93.7812ZM116.062 98.1562C115.214 98.1562 114.576 97.9323 114.148 97.4844C113.721 97.0365 113.508 96.4219 113.508 95.6406C113.508 94.7656 113.794 94.0938 114.367 93.625C114.945 93.1562 115.875 92.9062 117.156 92.875L119.055 92.8438V92.3828C119.055 91.6953 118.909 91.2031 118.617 90.9062C118.326 90.6094 117.867 90.4609 117.242 90.4609C116.612 90.4609 116.154 90.5677 115.867 90.7812C115.581 90.9948 115.409 91.3359 115.352 91.8047L113.883 91.6719C114.122 90.151 115.253 89.3906 117.273 89.3906C118.336 89.3906 119.135 89.6354 119.672 90.125C120.208 90.6094 120.477 91.3125 120.477 92.2344V95.875C120.477 96.2917 120.531 96.6068 120.641 96.8203C120.75 97.0286 120.958 97.1328 121.266 97.1328C121.401 97.1328 121.555 97.1146 121.727 97.0781V97.9531C121.372 98.0365 121.01 98.0781 120.641 98.0781C120.12 98.0781 119.74 97.9427 119.5 97.6719C119.266 97.3958 119.133 96.9661 119.102 96.3828H119.055C118.695 97.0286 118.276 97.487 117.797 97.7578C117.323 98.0234 116.745 98.1562 116.062 98.1562ZM116.383 97.1016C116.898 97.1016 117.357 96.9844 117.758 96.75C118.159 96.5156 118.474 96.1953 118.703 95.7891C118.938 95.3776 119.055 94.9557 119.055 94.5234V93.8281L117.516 93.8594C116.854 93.8698 116.352 93.9375 116.008 94.0625C115.669 94.1875 115.409 94.3802 115.227 94.6406C115.044 94.901 114.953 95.2422 114.953 95.6641C114.953 96.1224 115.076 96.4766 115.32 96.7266C115.57 96.9766 115.924 97.1016 116.383 97.1016ZM122.812 98V86.4062H124.219V98H122.812ZM88.9375 112.961C88.9375 113.977 88.5391 114.763 87.7422 115.32C86.9505 115.878 85.8333 116.156 84.3906 116.156C81.7083 116.156 80.1536 115.224 79.7266 113.359L81.1719 113.07C81.3385 113.732 81.6927 114.219 82.2344 114.531C82.776 114.839 83.513 114.992 84.4453 114.992C85.4089 114.992 86.151 114.828 86.6719 114.5C87.1979 114.167 87.4609 113.68 87.4609 113.039C87.4609 112.68 87.3776 112.388 87.2109 112.164C87.0495 111.94 86.8203 111.755 86.5234 111.609C86.2266 111.464 85.8724 111.341 85.4609 111.242C85.0495 111.143 84.5938 111.036 84.0938 110.922C83.224 110.729 82.5625 110.536 82.1094 110.344C81.6615 110.151 81.3073 109.938 81.0469 109.703C80.7865 109.464 80.5859 109.185 80.4453 108.867C80.3099 108.549 80.2422 108.185 80.2422 107.773C80.2422 106.831 80.6016 106.104 81.3203 105.594C82.0443 105.083 83.0781 104.828 84.4219 104.828C85.6719 104.828 86.6276 105.021 87.2891 105.406C87.9505 105.786 88.4141 106.438 88.6797 107.359L87.2109 107.617C87.0495 107.034 86.7422 106.612 86.2891 106.352C85.8359 106.086 85.2083 105.953 84.4062 105.953C83.526 105.953 82.8542 106.099 82.3906 106.391C81.9271 106.682 81.6953 107.117 81.6953 107.695C81.6953 108.034 81.7839 108.315 81.9609 108.539C82.1432 108.758 82.4036 108.945 82.7422 109.102C83.0807 109.253 83.7552 109.44 84.7656 109.664C85.1042 109.742 85.4401 109.823 85.7734 109.906C86.112 109.984 86.4349 110.081 86.7422 110.195C87.0495 110.305 87.3359 110.435 87.6016 110.586C87.8724 110.737 88.1068 110.922 88.3047 111.141C88.5026 111.359 88.6562 111.617 88.7656 111.914C88.8802 112.211 88.9375 112.56 88.9375 112.961ZM94 115.938C93.5365 116.062 93.0625 116.125 92.5781 116.125C91.4531 116.125 90.8906 115.487 90.8906 114.211V108.57H89.9141V107.547H90.9453L91.3594 105.656H92.2969V107.547H93.8594V108.57H92.2969V113.906C92.2969 114.312 92.362 114.599 92.4922 114.766C92.6276 114.927 92.8594 115.008 93.1875 115.008C93.375 115.008 93.6458 114.971 94 114.898V115.938ZM95.2344 116V109.516C95.2344 108.922 95.2188 108.266 95.1875 107.547H96.5156C96.5573 108.505 96.5781 109.081 96.5781 109.273H96.6094C96.8333 108.549 97.0911 108.055 97.3828 107.789C97.6745 107.523 98.0859 107.391 98.6172 107.391C98.8047 107.391 98.9948 107.417 99.1875 107.469V108.758C99 108.706 98.75 108.68 98.4375 108.68C97.8542 108.68 97.4089 108.932 97.1016 109.438C96.7943 109.938 96.6406 110.656 96.6406 111.594V116H95.2344ZM102.688 116.156C101.839 116.156 101.201 115.932 100.773 115.484C100.346 115.036 100.133 114.422 100.133 113.641C100.133 112.766 100.419 112.094 100.992 111.625C101.57 111.156 102.5 110.906 103.781 110.875L105.68 110.844V110.383C105.68 109.695 105.534 109.203 105.242 108.906C104.951 108.609 104.492 108.461 103.867 108.461C103.237 108.461 102.779 108.568 102.492 108.781C102.206 108.995 102.034 109.336 101.977 109.805L100.508 109.672C100.747 108.151 101.878 107.391 103.898 107.391C104.961 107.391 105.76 107.635 106.297 108.125C106.833 108.609 107.102 109.312 107.102 110.234V113.875C107.102 114.292 107.156 114.607 107.266 114.82C107.375 115.029 107.583 115.133 107.891 115.133C108.026 115.133 108.18 115.115 108.352 115.078V115.953C107.997 116.036 107.635 116.078 107.266 116.078C106.745 116.078 106.365 115.943 106.125 115.672C105.891 115.396 105.758 114.966 105.727 114.383H105.68C105.32 115.029 104.901 115.487 104.422 115.758C103.948 116.023 103.37 116.156 102.688 116.156ZM103.008 115.102C103.523 115.102 103.982 114.984 104.383 114.75C104.784 114.516 105.099 114.195 105.328 113.789C105.562 113.378 105.68 112.956 105.68 112.523V111.828L104.141 111.859C103.479 111.87 102.977 111.938 102.633 112.062C102.294 112.188 102.034 112.38 101.852 112.641C101.669 112.901 101.578 113.242 101.578 113.664C101.578 114.122 101.701 114.477 101.945 114.727C102.195 114.977 102.549 115.102 103.008 115.102ZM112.688 115.938C112.224 116.062 111.75 116.125 111.266 116.125C110.141 116.125 109.578 115.487 109.578 114.211V108.57H108.602V107.547H109.633L110.047 105.656H110.984V107.547H112.547V108.57H110.984V113.906C110.984 114.312 111.049 114.599 111.18 114.766C111.315 114.927 111.547 115.008 111.875 115.008C112.062 115.008 112.333 114.971 112.688 114.898V115.938ZM114.969 112.07C114.969 113.039 115.169 113.786 115.57 114.312C115.971 114.839 116.557 115.102 117.328 115.102C117.938 115.102 118.424 114.979 118.789 114.734C119.159 114.49 119.409 114.18 119.539 113.805L120.773 114.156C120.268 115.49 119.12 116.156 117.328 116.156C116.078 116.156 115.125 115.784 114.469 115.039C113.818 114.294 113.492 113.188 113.492 111.719C113.492 110.323 113.818 109.253 114.469 108.508C115.125 107.763 116.06 107.391 117.273 107.391C119.758 107.391 121 108.888 121 111.883V112.07H114.969ZM119.547 110.992C119.469 110.102 119.242 109.453 118.867 109.047C118.492 108.635 117.953 108.43 117.25 108.43C116.568 108.43 116.026 108.659 115.625 109.117C115.229 109.57 115.016 110.195 114.984 110.992H119.547ZM126 119.32C125.078 119.32 124.344 119.138 123.797 118.773C123.25 118.414 122.898 117.901 122.742 117.234L124.156 117.031C124.25 117.422 124.456 117.721 124.773 117.93C125.096 118.143 125.518 118.25 126.039 118.25C127.44 118.25 128.141 117.43 128.141 115.789V114.43H128.125C127.859 114.971 127.495 115.38 127.031 115.656C126.568 115.927 126.026 116.062 125.406 116.062C124.37 116.062 123.607 115.719 123.117 115.031C122.633 114.344 122.391 113.263 122.391 111.789C122.391 110.294 122.651 109.193 123.172 108.484C123.698 107.771 124.495 107.414 125.562 107.414C126.161 107.414 126.68 107.552 127.117 107.828C127.56 108.099 127.901 108.487 128.141 108.992H128.156C128.156 108.836 128.167 108.565 128.188 108.18C128.208 107.794 128.229 107.583 128.25 107.547H129.586C129.555 107.828 129.539 108.411 129.539 109.297V115.758C129.539 118.133 128.359 119.32 126 119.32ZM128.141 111.773C128.141 111.086 128.047 110.495 127.859 110C127.672 109.5 127.406 109.12 127.062 108.859C126.724 108.594 126.339 108.461 125.906 108.461C125.188 108.461 124.664 108.721 124.336 109.242C124.008 109.763 123.844 110.607 123.844 111.773C123.844 112.93 123.997 113.76 124.305 114.266C124.612 114.771 125.138 115.023 125.883 115.023C126.326 115.023 126.719 114.893 127.062 114.633C127.406 114.372 127.672 114 127.859 113.516C128.047 113.026 128.141 112.445 128.141 111.773ZM132.117 119.32C131.732 119.32 131.409 119.292 131.148 119.234V118.18C131.346 118.211 131.565 118.227 131.805 118.227C132.68 118.227 133.372 117.583 133.883 116.297L134.016 115.961L130.664 107.547H132.164L133.945 112.219C133.971 112.292 134.003 112.38 134.039 112.484C134.076 112.583 134.193 112.922 134.391 113.5C134.589 114.078 134.695 114.401 134.711 114.469L135.258 112.93L137.109 107.547H138.594L135.344 116C134.995 116.901 134.669 117.57 134.367 118.008C134.065 118.451 133.729 118.779 133.359 118.992C132.995 119.211 132.581 119.32 132.117 119.32ZM88.8281 126.305C88.8281 127.346 88.487 128.174 87.8047 128.789C87.1276 129.404 86.2057 129.711 85.0391 129.711H81.8047V134H80.3125V122.992H84.9453C86.1797 122.992 87.1354 123.281 87.8125 123.859C88.4896 124.438 88.8281 125.253 88.8281 126.305ZM87.3281 126.32C87.3281 124.898 86.474 124.188 84.7656 124.188H81.8047V128.531H84.8281C86.4948 128.531 87.3281 127.794 87.3281 126.32ZM92.9062 134.156C92.0573 134.156 91.4193 133.932 90.9922 133.484C90.5651 133.036 90.3516 132.422 90.3516 131.641C90.3516 130.766 90.638 130.094 91.2109 129.625C91.7891 129.156 92.7188 128.906 94 128.875L95.8984 128.844V128.383C95.8984 127.695 95.7526 127.203 95.4609 126.906C95.1693 126.609 94.7109 126.461 94.0859 126.461C93.4557 126.461 92.9974 126.568 92.7109 126.781C92.4245 126.995 92.2526 127.336 92.1953 127.805L90.7266 127.672C90.9661 126.151 92.0964 125.391 94.1172 125.391C95.1797 125.391 95.9792 125.635 96.5156 126.125C97.0521 126.609 97.3203 127.312 97.3203 128.234V131.875C97.3203 132.292 97.375 132.607 97.4844 132.82C97.5938 133.029 97.8021 133.133 98.1094 133.133C98.2448 133.133 98.3984 133.115 98.5703 133.078V133.953C98.2161 134.036 97.8542 134.078 97.4844 134.078C96.9635 134.078 96.5833 133.943 96.3438 133.672C96.1094 133.396 95.9766 132.966 95.9453 132.383H95.8984C95.5391 133.029 95.1198 133.487 94.6406 133.758C94.1667 134.023 93.5885 134.156 92.9062 134.156ZM93.2266 133.102C93.7422 133.102 94.2005 132.984 94.6016 132.75C95.0026 132.516 95.3177 132.195 95.5469 131.789C95.7812 131.378 95.8984 130.956 95.8984 130.523V129.828L94.3594 129.859C93.6979 129.87 93.1953 129.938 92.8516 130.062C92.513 130.188 92.2526 130.38 92.0703 130.641C91.888 130.901 91.7969 131.242 91.7969 131.664C91.7969 132.122 91.9193 132.477 92.1641 132.727C92.4141 132.977 92.7682 133.102 93.2266 133.102ZM99.6875 134V127.516C99.6875 126.922 99.6719 126.266 99.6406 125.547H100.969C101.01 126.505 101.031 127.081 101.031 127.273H101.062C101.286 126.549 101.544 126.055 101.836 125.789C102.128 125.523 102.539 125.391 103.07 125.391C103.258 125.391 103.448 125.417 103.641 125.469V126.758C103.453 126.706 103.203 126.68 102.891 126.68C102.307 126.68 101.862 126.932 101.555 127.438C101.247 127.938 101.094 128.656 101.094 129.594V134H99.6875ZM108.234 133.938C107.771 134.062 107.297 134.125 106.812 134.125C105.688 134.125 105.125 133.487 105.125 132.211V126.57H104.148V125.547H105.18L105.594 123.656H106.531V125.547H108.094V126.57H106.531V131.906C106.531 132.312 106.596 132.599 106.727 132.766C106.862 132.927 107.094 133.008 107.422 133.008C107.609 133.008 107.88 132.971 108.234 132.898V133.938ZM114.805 134V128.641C114.805 128.083 114.75 127.651 114.641 127.344C114.531 127.036 114.357 126.815 114.117 126.68C113.878 126.544 113.526 126.477 113.062 126.477C112.385 126.477 111.852 126.708 111.461 127.172C111.07 127.635 110.875 128.279 110.875 129.102V134H109.469V127.352C109.469 126.367 109.453 125.766 109.422 125.547H110.75C110.755 125.573 110.76 125.643 110.766 125.758C110.771 125.872 110.776 126.005 110.781 126.156C110.792 126.302 110.802 126.581 110.812 126.992H110.836C111.159 126.409 111.531 125.997 111.953 125.758C112.38 125.513 112.909 125.391 113.539 125.391C114.466 125.391 115.143 125.622 115.57 126.086C116.003 126.544 116.219 127.305 116.219 128.367V134H114.805ZM119.422 130.07C119.422 131.039 119.622 131.786 120.023 132.312C120.424 132.839 121.01 133.102 121.781 133.102C122.391 133.102 122.878 132.979 123.242 132.734C123.612 132.49 123.862 132.18 123.992 131.805L125.227 132.156C124.721 133.49 123.573 134.156 121.781 134.156C120.531 134.156 119.578 133.784 118.922 133.039C118.271 132.294 117.945 131.188 117.945 129.719C117.945 128.323 118.271 127.253 118.922 126.508C119.578 125.763 120.513 125.391 121.727 125.391C124.211 125.391 125.453 126.888 125.453 129.883V130.07H119.422ZM124 128.992C123.922 128.102 123.695 127.453 123.32 127.047C122.945 126.635 122.406 126.43 121.703 126.43C121.021 126.43 120.479 126.659 120.078 127.117C119.682 127.57 119.469 128.195 119.438 128.992H124ZM127.281 134V127.516C127.281 126.922 127.266 126.266 127.234 125.547H128.562C128.604 126.505 128.625 127.081 128.625 127.273H128.656C128.88 126.549 129.138 126.055 129.43 125.789C129.721 125.523 130.133 125.391 130.664 125.391C130.852 125.391 131.042 125.417 131.234 125.469V126.758C131.047 126.706 130.797 126.68 130.484 126.68C129.901 126.68 129.456 126.932 129.148 127.438C128.841 127.938 128.688 128.656 128.688 129.594V134H127.281ZM138.922 131.664C138.922 132.461 138.62 133.076 138.016 133.508C137.417 133.94 136.576 134.156 135.492 134.156C134.44 134.156 133.628 133.984 133.055 133.641C132.487 133.292 132.117 132.75 131.945 132.016L133.188 131.773C133.307 132.227 133.555 132.56 133.93 132.773C134.305 132.982 134.826 133.086 135.492 133.086C136.206 133.086 136.727 132.977 137.055 132.758C137.388 132.539 137.555 132.211 137.555 131.773C137.555 131.44 137.44 131.169 137.211 130.961C136.982 130.753 136.612 130.581 136.102 130.445L135.094 130.18C134.286 129.971 133.711 129.768 133.367 129.57C133.029 129.367 132.763 129.122 132.57 128.836C132.378 128.549 132.281 128.198 132.281 127.781C132.281 127.01 132.555 126.424 133.102 126.023C133.654 125.617 134.456 125.414 135.508 125.414C136.44 125.414 137.18 125.578 137.727 125.906C138.279 126.234 138.628 126.76 138.773 127.484L137.508 127.641C137.43 127.266 137.219 126.979 136.875 126.781C136.536 126.578 136.081 126.477 135.508 126.477C134.872 126.477 134.404 126.573 134.102 126.766C133.799 126.958 133.648 127.25 133.648 127.641C133.648 127.88 133.711 128.078 133.836 128.234C133.961 128.391 134.146 128.523 134.391 128.633C134.635 128.742 135.151 128.893 135.938 129.086C136.682 129.273 137.219 129.448 137.547 129.609C137.875 129.766 138.133 129.94 138.32 130.133C138.513 130.326 138.661 130.549 138.766 130.805C138.87 131.055 138.922 131.341 138.922 131.664Z" fill="white"/>
<path d="M89.0469 25.8281C89.0469 26.9062 88.6458 27.7318 87.8438 28.3047C87.0469 28.8724 85.875 29.1562 84.3281 29.1562C82.9167 29.1562 81.8099 28.9062 81.0078 28.4062C80.2057 27.9062 79.6901 27.1484 79.4609 26.1328L81.6875 25.7656C81.8385 26.349 82.1328 26.7734 82.5703 27.0391C83.0078 27.2995 83.6146 27.4297 84.3906 27.4297C86 27.4297 86.8047 26.9401 86.8047 25.9609C86.8047 25.6484 86.7109 25.3906 86.5234 25.1875C86.3411 24.9844 86.0807 24.8151 85.7422 24.6797C85.4089 24.5443 84.7656 24.3802 83.8125 24.1875C82.9896 23.9948 82.4167 23.8411 82.0938 23.7266C81.7708 23.6068 81.4792 23.4688 81.2188 23.3125C80.9583 23.151 80.737 22.9583 80.5547 22.7344C80.3724 22.5104 80.2292 22.2474 80.125 21.9453C80.026 21.6432 79.9766 21.2969 79.9766 20.9062C79.9766 19.9115 80.349 19.151 81.0938 18.625C81.8438 18.0938 82.9323 17.8281 84.3594 17.8281C85.724 17.8281 86.7474 18.0417 87.4297 18.4688C88.1172 18.8958 88.5599 19.6016 88.7578 20.5859L86.5234 20.8906C86.4089 20.4167 86.1745 20.0599 85.8203 19.8203C85.4714 19.5807 84.9688 19.4609 84.3125 19.4609C82.9167 19.4609 82.2188 19.8984 82.2188 20.7734C82.2188 21.0599 82.2917 21.2943 82.4375 21.4766C82.5885 21.6589 82.8099 21.8151 83.1016 21.9453C83.3932 22.0703 83.9844 22.2292 84.875 22.4219C85.9323 22.6458 86.6875 22.8542 87.1406 23.0469C87.599 23.2344 87.9609 23.4557 88.2266 23.7109C88.4922 23.9609 88.6953 24.263 88.8359 24.6172C88.9766 24.9661 89.0469 25.3698 89.0469 25.8281ZM92.7422 29.1562C91.9245 29.1562 91.2865 28.9349 90.8281 28.4922C90.3698 28.0443 90.1406 27.4167 90.1406 26.6094C90.1406 25.7344 90.4245 25.0677 90.9922 24.6094C91.5651 24.151 92.3932 23.9167 93.4766 23.9062L95.2969 23.875V23.4453C95.2969 22.8932 95.2005 22.4844 95.0078 22.2188C94.8151 21.9479 94.5 21.8125 94.0625 21.8125C93.6562 21.8125 93.3568 21.9062 93.1641 22.0938C92.9766 22.276 92.8594 22.5807 92.8125 23.0078L90.5234 22.8984C90.6641 22.0755 91.0391 21.4531 91.6484 21.0312C92.263 20.6042 93.099 20.3906 94.1562 20.3906C95.224 20.3906 96.0469 20.6536 96.625 21.1797C97.2031 21.7057 97.4922 22.4531 97.4922 23.4219V26.5C97.4922 26.974 97.5443 27.3021 97.6484 27.4844C97.7578 27.6615 97.9375 27.75 98.1875 27.75C98.3542 27.75 98.5156 27.7344 98.6719 27.7031V28.8906C98.5417 28.9219 98.4245 28.9505 98.3203 28.9766C98.2161 29.0026 98.112 29.0234 98.0078 29.0391C97.9036 29.0547 97.7917 29.0677 97.6719 29.0781C97.5573 29.0885 97.4219 29.0938 97.2656 29.0938C96.7135 29.0938 96.3047 28.9583 96.0391 28.6875C95.7786 28.4167 95.6224 28.0182 95.5703 27.4922H95.5234C94.9089 28.6016 93.9818 29.1562 92.7422 29.1562ZM95.2969 25.0859L94.1719 25.1016C93.6615 25.1224 93.2995 25.1797 93.0859 25.2734C92.8724 25.362 92.7083 25.5 92.5938 25.6875C92.4844 25.875 92.4297 26.125 92.4297 26.4375C92.4297 26.8385 92.5208 27.138 92.7031 27.3359C92.8906 27.5286 93.138 27.625 93.4453 27.625C93.7891 27.625 94.1016 27.5312 94.3828 27.3438C94.6693 27.1562 94.8932 26.8984 95.0547 26.5703C95.2161 26.237 95.2969 25.8854 95.2969 25.5156V25.0859ZM101.766 20.5469V25.2891C101.766 26.7734 102.266 27.5156 103.266 27.5156C103.797 27.5156 104.224 27.2891 104.547 26.8359C104.875 26.3776 105.039 25.7917 105.039 25.0781V20.5469H107.234V27.1094C107.234 27.8281 107.255 28.4583 107.297 29H105.203C105.141 28.25 105.109 27.6901 105.109 27.3203H105.07C104.779 27.9609 104.406 28.4271 103.953 28.7188C103.505 29.0104 102.971 29.1562 102.352 29.1562C101.456 29.1562 100.768 28.8828 100.289 28.3359C99.8099 27.7839 99.5703 26.9766 99.5703 25.9141V20.5469H101.766ZM109.477 29V17.4062H111.672V29H109.477ZM121.961 24.7656C121.961 26.1354 121.581 27.2109 120.82 27.9922C120.06 28.7682 119.008 29.1562 117.664 29.1562C116.346 29.1562 115.312 28.7656 114.562 27.9844C113.812 27.2031 113.438 26.1302 113.438 24.7656C113.438 23.4062 113.812 22.3385 114.562 21.5625C115.312 20.7812 116.362 20.3906 117.711 20.3906C119.091 20.3906 120.143 20.7682 120.867 21.5234C121.596 22.2734 121.961 23.3542 121.961 24.7656ZM119.664 24.7656C119.664 23.7604 119.5 23.0312 119.172 22.5781C118.844 22.125 118.367 21.8984 117.742 21.8984C116.409 21.8984 115.742 22.8542 115.742 24.7656C115.742 25.7083 115.904 26.4271 116.227 26.9219C116.555 27.4115 117.026 27.6562 117.641 27.6562C118.99 27.6562 119.664 26.6927 119.664 24.7656ZM129.188 29V24.2578C129.188 22.7734 128.685 22.0312 127.68 22.0312C127.148 22.0312 126.719 22.2604 126.391 22.7188C126.068 23.1719 125.906 23.7552 125.906 24.4688V29H123.711V22.4375C123.711 21.9844 123.703 21.6146 123.688 21.3281C123.677 21.0365 123.664 20.776 123.648 20.5469H125.742C125.758 20.6458 125.779 20.9115 125.805 21.3438C125.831 21.7708 125.844 22.0651 125.844 22.2266H125.875C126.172 21.5807 126.544 21.112 126.992 20.8203C127.44 20.5286 127.974 20.3828 128.594 20.3828C129.49 20.3828 130.177 20.6589 130.656 21.2109C131.135 21.763 131.375 22.5703 131.375 23.6328V29H129.188ZM137.031 32.3906C136 32.3906 135.169 32.1927 134.539 31.7969C133.914 31.4062 133.529 30.8464 133.383 30.1172L135.578 29.8594C135.656 30.1979 135.823 30.4635 136.078 30.6562C136.339 30.849 136.677 30.9453 137.094 30.9453C137.703 30.9453 138.148 30.7578 138.43 30.3828C138.711 30.0078 138.852 29.4505 138.852 28.7109V28.2656L138.867 27.4297H138.852C138.367 28.4661 137.461 28.9844 136.133 28.9844C135.148 28.9844 134.385 28.6146 133.844 27.875C133.302 27.1354 133.031 26.0781 133.031 24.7031C133.031 23.3229 133.31 22.2578 133.867 21.5078C134.424 20.7578 135.234 20.3828 136.297 20.3828C137.526 20.3828 138.378 20.8906 138.852 21.9062H138.891C138.891 21.724 138.901 21.4766 138.922 21.1641C138.948 20.8516 138.974 20.6458 139 20.5469H141.078C141.047 21.1094 141.031 21.7604 141.031 22.5V28.7422C141.031 29.9453 140.69 30.8542 140.008 31.4688C139.326 32.0833 138.333 32.3906 137.031 32.3906ZM138.867 24.6562C138.867 23.7865 138.711 23.1094 138.398 22.625C138.091 22.1354 137.651 21.8906 137.078 21.8906C135.906 21.8906 135.32 22.8281 135.32 24.7031C135.32 26.5417 135.901 27.4609 137.062 27.4609C137.646 27.4609 138.091 27.2188 138.398 26.7344C138.711 26.2448 138.867 25.5521 138.867 24.6562ZM89.2109 47V40.3281C89.2109 40.1771 89.2109 40.026 89.2109 39.875C89.2161 39.724 89.2422 39.0755 89.2891 37.9297C88.9193 39.3307 88.6458 40.3073 88.4688 40.8594L86.4844 47H84.8438L82.8594 40.8594L82.0234 37.9297C82.0859 39.138 82.1172 39.9375 82.1172 40.3281V47H80.0703V35.9922H83.1562L85.125 42.1484L85.2969 42.7422L85.6719 44.2188L86.1641 42.4531L88.1875 35.9922H91.2578V47H89.2109ZM95.3984 47.1562C94.5807 47.1562 93.9427 46.9349 93.4844 46.4922C93.026 46.0443 92.7969 45.4167 92.7969 44.6094C92.7969 43.7344 93.0807 43.0677 93.6484 42.6094C94.2214 42.151 95.0495 41.9167 96.1328 41.9062L97.9531 41.875V41.4453C97.9531 40.8932 97.8568 40.4844 97.6641 40.2188C97.4714 39.9479 97.1562 39.8125 96.7188 39.8125C96.3125 39.8125 96.013 39.9062 95.8203 40.0938C95.6328 40.276 95.5156 40.5807 95.4688 41.0078L93.1797 40.8984C93.3203 40.0755 93.6953 39.4531 94.3047 39.0312C94.9193 38.6042 95.7552 38.3906 96.8125 38.3906C97.8802 38.3906 98.7031 38.6536 99.2812 39.1797C99.8594 39.7057 100.148 40.4531 100.148 41.4219V44.5C100.148 44.974 100.201 45.3021 100.305 45.4844C100.414 45.6615 100.594 45.75 100.844 45.75C101.01 45.75 101.172 45.7344 101.328 45.7031V46.8906C101.198 46.9219 101.081 46.9505 100.977 46.9766C100.872 47.0026 100.768 47.0234 100.664 47.0391C100.56 47.0547 100.448 47.0677 100.328 47.0781C100.214 47.0885 100.078 47.0938 99.9219 47.0938C99.3698 47.0938 98.9609 46.9583 98.6953 46.6875C98.4349 46.4167 98.2786 46.0182 98.2266 45.4922H98.1797C97.5651 46.6016 96.638 47.1562 95.3984 47.1562ZM97.9531 43.0859L96.8281 43.1016C96.3177 43.1224 95.9557 43.1797 95.7422 43.2734C95.5286 43.362 95.3646 43.5 95.25 43.6875C95.1406 43.875 95.0859 44.125 95.0859 44.4375C95.0859 44.8385 95.1771 45.138 95.3594 45.3359C95.5469 45.5286 95.7943 45.625 96.1016 45.625C96.4453 45.625 96.7578 45.5312 97.0391 45.3438C97.3255 45.1562 97.5495 44.8984 97.7109 44.5703C97.8724 44.237 97.9531 43.8854 97.9531 43.5156V43.0859ZM107.828 47V42.2578C107.828 40.7734 107.326 40.0312 106.32 40.0312C105.789 40.0312 105.359 40.2604 105.031 40.7188C104.708 41.1719 104.547 41.7552 104.547 42.4688V47H102.352V40.4375C102.352 39.9844 102.344 39.6146 102.328 39.3281C102.318 39.0365 102.305 38.776 102.289 38.5469H104.383C104.398 38.6458 104.419 38.9115 104.445 39.3438C104.471 39.7708 104.484 40.0651 104.484 40.2266H104.516C104.812 39.5807 105.185 39.112 105.633 38.8203C106.081 38.5286 106.615 38.3828 107.234 38.3828C108.13 38.3828 108.818 38.6589 109.297 39.2109C109.776 39.763 110.016 40.5703 110.016 41.6328V47H107.828ZM114.086 47.1562C113.268 47.1562 112.63 46.9349 112.172 46.4922C111.714 46.0443 111.484 45.4167 111.484 44.6094C111.484 43.7344 111.768 43.0677 112.336 42.6094C112.909 42.151 113.737 41.9167 114.82 41.9062L116.641 41.875V41.4453C116.641 40.8932 116.544 40.4844 116.352 40.2188C116.159 39.9479 115.844 39.8125 115.406 39.8125C115 39.8125 114.701 39.9062 114.508 40.0938C114.32 40.276 114.203 40.5807 114.156 41.0078L111.867 40.8984C112.008 40.0755 112.383 39.4531 112.992 39.0312C113.607 38.6042 114.443 38.3906 115.5 38.3906C116.568 38.3906 117.391 38.6536 117.969 39.1797C118.547 39.7057 118.836 40.4531 118.836 41.4219V44.5C118.836 44.974 118.888 45.3021 118.992 45.4844C119.102 45.6615 119.281 45.75 119.531 45.75C119.698 45.75 119.859 45.7344 120.016 45.7031V46.8906C119.885 46.9219 119.768 46.9505 119.664 46.9766C119.56 47.0026 119.456 47.0234 119.352 47.0391C119.247 47.0547 119.135 47.0677 119.016 47.0781C118.901 47.0885 118.766 47.0938 118.609 47.0938C118.057 47.0938 117.648 46.9583 117.383 46.6875C117.122 46.4167 116.966 46.0182 116.914 45.4922H116.867C116.253 46.6016 115.326 47.1562 114.086 47.1562ZM116.641 43.0859L115.516 43.1016C115.005 43.1224 114.643 43.1797 114.43 43.2734C114.216 43.362 114.052 43.5 113.938 43.6875C113.828 43.875 113.773 44.125 113.773 44.4375C113.773 44.8385 113.865 45.138 114.047 45.3359C114.234 45.5286 114.482 45.625 114.789 45.625C115.133 45.625 115.445 45.5312 115.727 45.3438C116.013 45.1562 116.237 44.8984 116.398 44.5703C116.56 44.237 116.641 43.8854 116.641 43.5156V43.0859ZM121.039 47V35.4062H123.234V47H121.039ZM127.445 47.1562C126.628 47.1562 125.99 46.9349 125.531 46.4922C125.073 46.0443 124.844 45.4167 124.844 44.6094C124.844 43.7344 125.128 43.0677 125.695 42.6094C126.268 42.151 127.096 41.9167 128.18 41.9062L130 41.875V41.4453C130 40.8932 129.904 40.4844 129.711 40.2188C129.518 39.9479 129.203 39.8125 128.766 39.8125C128.359 39.8125 128.06 39.9062 127.867 40.0938C127.68 40.276 127.562 40.5807 127.516 41.0078L125.227 40.8984C125.367 40.0755 125.742 39.4531 126.352 39.0312C126.966 38.6042 127.802 38.3906 128.859 38.3906C129.927 38.3906 130.75 38.6536 131.328 39.1797C131.906 39.7057 132.195 40.4531 132.195 41.4219V44.5C132.195 44.974 132.247 45.3021 132.352 45.4844C132.461 45.6615 132.641 45.75 132.891 45.75C133.057 45.75 133.219 45.7344 133.375 45.7031V46.8906C133.245 46.9219 133.128 46.9505 133.023 46.9766C132.919 47.0026 132.815 47.0234 132.711 47.0391C132.607 47.0547 132.495 47.0677 132.375 47.0781C132.26 47.0885 132.125 47.0938 131.969 47.0938C131.417 47.0938 131.008 46.9583 130.742 46.6875C130.482 46.4167 130.326 46.0182 130.273 45.4922H130.227C129.612 46.6016 128.685 47.1562 127.445 47.1562ZM130 43.0859L128.875 43.1016C128.365 43.1224 128.003 43.1797 127.789 43.2734C127.576 43.362 127.411 43.5 127.297 43.6875C127.188 43.875 127.133 44.125 127.133 44.4375C127.133 44.8385 127.224 45.138 127.406 45.3359C127.594 45.5286 127.841 45.625 128.148 45.625C128.492 45.625 128.805 45.5312 129.086 45.3438C129.372 45.1562 129.596 44.8984 129.758 44.5703C129.919 44.237 130 43.8854 130 43.5156V43.0859ZM141.523 44.5312C141.523 45.349 141.188 45.9922 140.516 46.4609C139.849 46.9245 138.924 47.1562 137.742 47.1562C136.581 47.1562 135.69 46.974 135.07 46.6094C134.456 46.2396 134.047 45.6667 133.844 44.8906L135.773 44.6016C135.883 45.0026 136.07 45.2865 136.336 45.4531C136.607 45.6198 137.076 45.7031 137.742 45.7031C138.357 45.7031 138.805 45.625 139.086 45.4688C139.367 45.3125 139.508 45.0677 139.508 44.7344C139.508 44.4635 139.393 44.25 139.164 44.0938C138.94 43.9323 138.557 43.7969 138.016 43.6875C136.776 43.4427 135.94 43.2161 135.508 43.0078C135.076 42.7943 134.745 42.5208 134.516 42.1875C134.292 41.849 134.18 41.4349 134.18 40.9453C134.18 40.138 134.49 39.5104 135.109 39.0625C135.734 38.6094 136.617 38.3828 137.758 38.3828C138.763 38.3828 139.57 38.5781 140.18 38.9688C140.794 39.3594 141.177 39.9245 141.328 40.6641L139.383 40.8672C139.32 40.5234 139.167 40.2682 138.922 40.1016C138.677 39.9297 138.289 39.8438 137.758 39.8438C137.237 39.8438 136.846 39.9115 136.586 40.0469C136.326 40.1771 136.195 40.3984 136.195 40.7109C136.195 40.9557 136.294 41.151 136.492 41.2969C136.695 41.4375 137.034 41.5547 137.508 41.6484C138.169 41.7839 138.755 41.9245 139.266 42.0703C139.781 42.2109 140.193 42.3802 140.5 42.5781C140.812 42.776 141.06 43.0312 141.242 43.3438C141.43 43.651 141.523 44.0469 141.523 44.5312ZM145.469 47.1406C144.823 47.1406 144.326 46.9661 143.977 46.6172C143.628 46.263 143.453 45.7292 143.453 45.0156V40.0312H142.383V38.5469H143.562L144.25 36.5625H145.625V38.5469H147.227V40.0312H145.625V44.4219C145.625 44.8333 145.703 45.138 145.859 45.3359C146.016 45.5286 146.258 45.625 146.586 45.625C146.758 45.625 147.003 45.5885 147.32 45.5156V46.875C146.779 47.0521 146.161 47.1406 145.469 47.1406ZM150.586 47.1562C149.768 47.1562 149.13 46.9349 148.672 46.4922C148.214 46.0443 147.984 45.4167 147.984 44.6094C147.984 43.7344 148.268 43.0677 148.836 42.6094C149.409 42.151 150.237 41.9167 151.32 41.9062L153.141 41.875V41.4453C153.141 40.8932 153.044 40.4844 152.852 40.2188C152.659 39.9479 152.344 39.8125 151.906 39.8125C151.5 39.8125 151.201 39.9062 151.008 40.0938C150.82 40.276 150.703 40.5807 150.656 41.0078L148.367 40.8984C148.508 40.0755 148.883 39.4531 149.492 39.0312C150.107 38.6042 150.943 38.3906 152 38.3906C153.068 38.3906 153.891 38.6536 154.469 39.1797C155.047 39.7057 155.336 40.4531 155.336 41.4219V44.5C155.336 44.974 155.388 45.3021 155.492 45.4844C155.602 45.6615 155.781 45.75 156.031 45.75C156.198 45.75 156.359 45.7344 156.516 45.7031V46.8906C156.385 46.9219 156.268 46.9505 156.164 46.9766C156.06 47.0026 155.956 47.0234 155.852 47.0391C155.747 47.0547 155.635 47.0677 155.516 47.0781C155.401 47.0885 155.266 47.0938 155.109 47.0938C154.557 47.0938 154.148 46.9583 153.883 46.6875C153.622 46.4167 153.466 46.0182 153.414 45.4922H153.367C152.753 46.6016 151.826 47.1562 150.586 47.1562ZM153.141 43.0859L152.016 43.1016C151.505 43.1224 151.143 43.1797 150.93 43.2734C150.716 43.362 150.552 43.5 150.438 43.6875C150.328 43.875 150.273 44.125 150.273 44.4375C150.273 44.8385 150.365 45.138 150.547 45.3359C150.734 45.5286 150.982 45.625 151.289 45.625C151.633 45.625 151.945 45.5312 152.227 45.3438C152.513 45.1562 152.737 44.8984 152.898 44.5703C153.06 44.237 153.141 43.8854 153.141 43.5156V43.0859ZM164.664 44.5312C164.664 45.349 164.328 45.9922 163.656 46.4609C162.99 46.9245 162.065 47.1562 160.883 47.1562C159.721 47.1562 158.831 46.974 158.211 46.6094C157.596 46.2396 157.188 45.6667 156.984 44.8906L158.914 44.6016C159.023 45.0026 159.211 45.2865 159.477 45.4531C159.747 45.6198 160.216 45.7031 160.883 45.7031C161.497 45.7031 161.945 45.625 162.227 45.4688C162.508 45.3125 162.648 45.0677 162.648 44.7344C162.648 44.4635 162.534 44.25 162.305 44.0938C162.081 43.9323 161.698 43.7969 161.156 43.6875C159.917 43.4427 159.081 43.2161 158.648 43.0078C158.216 42.7943 157.885 42.5208 157.656 42.1875C157.432 41.849 157.32 41.4349 157.32 40.9453C157.32 40.138 157.63 39.5104 158.25 39.0625C158.875 38.6094 159.758 38.3828 160.898 38.3828C161.904 38.3828 162.711 38.5781 163.32 38.9688C163.935 39.3594 164.318 39.9245 164.469 40.6641L162.523 40.8672C162.461 40.5234 162.307 40.2682 162.062 40.1016C161.818 39.9297 161.43 39.8438 160.898 39.8438C160.378 39.8438 159.987 39.9115 159.727 40.0469C159.466 40.1771 159.336 40.3984 159.336 40.7109C159.336 40.9557 159.435 41.151 159.633 41.2969C159.836 41.4375 160.174 41.5547 160.648 41.6484C161.31 41.7839 161.896 41.9245 162.406 42.0703C162.922 42.2109 163.333 42.3802 163.641 42.5781C163.953 42.776 164.201 43.0312 164.383 43.3438C164.57 43.651 164.664 44.0469 164.664 44.5312ZM89.125 57.4766C89.125 58.1849 88.9635 58.8177 88.6406 59.375C88.3177 59.9323 87.8542 60.3646 87.25 60.6719C86.651 60.974 85.9375 61.125 85.1094 61.125H82.375V65H80.0703V53.9922H85.0156C86.3333 53.9922 87.3464 54.2969 88.0547 54.9062C88.7682 55.5104 89.125 56.3672 89.125 57.4766ZM86.8047 57.5156C86.8047 56.3594 86.1224 55.7812 84.7578 55.7812H82.375V59.3516H84.8203C85.4557 59.3516 85.9453 59.1953 86.2891 58.8828C86.6328 58.5651 86.8047 58.1094 86.8047 57.5156ZM92.7422 65.1562C91.9245 65.1562 91.2865 64.9349 90.8281 64.4922C90.3698 64.0443 90.1406 63.4167 90.1406 62.6094C90.1406 61.7344 90.4245 61.0677 90.9922 60.6094C91.5651 60.151 92.3932 59.9167 93.4766 59.9062L95.2969 59.875V59.4453C95.2969 58.8932 95.2005 58.4844 95.0078 58.2188C94.8151 57.9479 94.5 57.8125 94.0625 57.8125C93.6562 57.8125 93.3568 57.9062 93.1641 58.0938C92.9766 58.276 92.8594 58.5807 92.8125 59.0078L90.5234 58.8984C90.6641 58.0755 91.0391 57.4531 91.6484 57.0312C92.263 56.6042 93.099 56.3906 94.1562 56.3906C95.224 56.3906 96.0469 56.6536 96.625 57.1797C97.2031 57.7057 97.4922 58.4531 97.4922 59.4219V62.5C97.4922 62.974 97.5443 63.3021 97.6484 63.4844C97.7578 63.6615 97.9375 63.75 98.1875 63.75C98.3542 63.75 98.5156 63.7344 98.6719 63.7031V64.8906C98.5417 64.9219 98.4245 64.9505 98.3203 64.9766C98.2161 65.0026 98.112 65.0234 98.0078 65.0391C97.9036 65.0547 97.7917 65.0677 97.6719 65.0781C97.5573 65.0885 97.4219 65.0938 97.2656 65.0938C96.7135 65.0938 96.3047 64.9583 96.0391 64.6875C95.7786 64.4167 95.6224 64.0182 95.5703 63.4922H95.5234C94.9089 64.6016 93.9818 65.1562 92.7422 65.1562ZM95.2969 61.0859L94.1719 61.1016C93.6615 61.1224 93.2995 61.1797 93.0859 61.2734C92.8724 61.362 92.7083 61.5 92.5938 61.6875C92.4844 61.875 92.4297 62.125 92.4297 62.4375C92.4297 62.8385 92.5208 63.138 92.7031 63.3359C92.8906 63.5286 93.138 63.625 93.4453 63.625C93.7891 63.625 94.1016 63.5312 94.3828 63.3438C94.6693 63.1562 94.8932 62.8984 95.0547 62.5703C95.2161 62.237 95.2969 61.8854 95.2969 61.5156V61.0859ZM101.859 65.1406C101.214 65.1406 100.716 64.9661 100.367 64.6172C100.018 64.263 99.8438 63.7292 99.8438 63.0156V58.0312H98.7734V56.5469H99.9531L100.641 54.5625H102.016V56.5469H103.617V58.0312H102.016V62.4219C102.016 62.8333 102.094 63.138 102.25 63.3359C102.406 63.5286 102.648 63.625 102.977 63.625C103.148 63.625 103.393 63.5885 103.711 63.5156V64.875C103.169 65.0521 102.552 65.1406 101.859 65.1406ZM110.5 65C110.479 64.9219 110.453 64.7266 110.422 64.4141C110.396 64.0964 110.383 63.8333 110.383 63.625H110.352C109.878 64.6458 108.977 65.1562 107.648 65.1562C106.664 65.1562 105.904 64.7734 105.367 64.0078C104.831 63.237 104.562 62.1615 104.562 60.7812C104.562 59.3802 104.844 58.2995 105.406 57.5391C105.974 56.7734 106.776 56.3906 107.812 56.3906C108.411 56.3906 108.927 56.5156 109.359 56.7656C109.797 57.0156 110.133 57.388 110.367 57.8828H110.383L110.367 56.4922V53.4062H112.562V63.1562C112.562 63.6771 112.583 64.2917 112.625 65H110.5ZM110.398 60.7266C110.398 59.8151 110.245 59.1146 109.938 58.625C109.635 58.1302 109.188 57.8828 108.594 57.8828C108.005 57.8828 107.568 58.1224 107.281 58.6016C106.995 59.0755 106.852 59.8021 106.852 60.7812C106.852 62.6979 107.427 63.6562 108.578 63.6562C109.156 63.6562 109.604 63.4036 109.922 62.8984C110.24 62.388 110.398 61.6641 110.398 60.7266ZM116.875 56.5469V61.2891C116.875 62.7734 117.375 63.5156 118.375 63.5156C118.906 63.5156 119.333 63.2891 119.656 62.8359C119.984 62.3776 120.148 61.7917 120.148 61.0781V56.5469H122.344V63.1094C122.344 63.8281 122.365 64.4583 122.406 65H120.312C120.25 64.25 120.219 63.6901 120.219 63.3203H120.18C119.888 63.9609 119.516 64.4271 119.062 64.7188C118.615 65.0104 118.081 65.1562 117.461 65.1562C116.565 65.1562 115.878 64.8828 115.398 64.3359C114.919 63.7839 114.68 62.9766 114.68 61.9141V56.5469H116.875ZM128.625 61.9922C128.625 61.2891 128.836 60.6641 129.258 60.1172C129.68 59.5651 130.349 59.0755 131.266 58.6484C130.88 57.8672 130.688 57.1406 130.688 56.4688C130.688 55.6562 130.943 55.0312 131.453 54.5938C131.964 54.151 132.69 53.9297 133.633 53.9297C134.508 53.9297 135.198 54.138 135.703 54.5547C136.214 54.9714 136.469 55.5365 136.469 56.25C136.469 56.651 136.367 57.013 136.164 57.3359C135.961 57.6589 135.672 57.9583 135.297 58.2344C134.927 58.5104 134.297 58.8568 133.406 59.2734C133.922 60.1849 134.557 61.0599 135.312 61.8984C135.854 61.0755 136.266 60.1302 136.547 59.0625L138.18 59.6094C137.826 60.8229 137.323 61.9167 136.672 62.8906C137.12 63.2708 137.583 63.4609 138.062 63.4609C138.401 63.4609 138.706 63.4193 138.977 63.3359V64.9219C138.69 65.0365 138.349 65.0938 137.953 65.0938C137.505 65.0938 137.055 65.013 136.602 64.8516C136.154 64.6901 135.745 64.4557 135.375 64.1484C134.49 64.8203 133.503 65.1562 132.414 65.1562C131.211 65.1562 130.279 64.8802 129.617 64.3281C128.956 63.7708 128.625 62.9922 128.625 61.9922ZM134.719 56.2656C134.719 55.9688 134.62 55.7266 134.422 55.5391C134.224 55.3516 133.956 55.2578 133.617 55.2578C133.216 55.2578 132.909 55.3698 132.695 55.5938C132.487 55.8177 132.383 56.1146 132.383 56.4844C132.383 56.9375 132.523 57.4401 132.805 57.9922C133.352 57.7578 133.742 57.5599 133.977 57.3984C134.216 57.237 134.398 57.0651 134.523 56.8828C134.654 56.7005 134.719 56.4948 134.719 56.2656ZM134.078 63.0781C133.214 62.1146 132.505 61.1328 131.953 60.1328C131.057 60.5547 130.609 61.1641 130.609 61.9609C130.609 62.4766 130.779 62.8906 131.117 63.2031C131.456 63.5156 131.917 63.6719 132.5 63.6719C132.839 63.6719 133.143 63.6094 133.414 63.4844C133.69 63.3594 133.911 63.224 134.078 63.0781ZM150.148 63.3438C151.539 63.3438 152.505 62.6458 153.047 61.25L155.055 62.0078C154.622 63.0703 153.987 63.862 153.148 64.3828C152.315 64.8984 151.315 65.1562 150.148 65.1562C148.378 65.1562 147.008 64.6562 146.039 63.6562C145.076 62.651 144.594 61.2474 144.594 59.4453C144.594 57.638 145.06 56.25 145.992 55.2812C146.924 54.3125 148.276 53.8281 150.047 53.8281C151.339 53.8281 152.391 54.0885 153.203 54.6094C154.016 55.125 154.586 55.8854 154.914 56.8906L152.883 57.4453C152.711 56.8932 152.372 56.4557 151.867 56.1328C151.367 55.8047 150.776 55.6406 150.094 55.6406C149.052 55.6406 148.26 55.9635 147.719 56.6094C147.182 57.2552 146.914 58.2005 146.914 59.4453C146.914 60.7109 147.19 61.6771 147.742 62.3438C148.299 63.0104 149.102 63.3438 150.148 63.3438ZM164.648 60.7656C164.648 62.1354 164.268 63.2109 163.508 63.9922C162.747 64.7682 161.695 65.1562 160.352 65.1562C159.034 65.1562 158 64.7656 157.25 63.9844C156.5 63.2031 156.125 62.1302 156.125 60.7656C156.125 59.4062 156.5 58.3385 157.25 57.5625C158 56.7812 159.049 56.3906 160.398 56.3906C161.779 56.3906 162.831 56.7682 163.555 57.5234C164.284 58.2734 164.648 59.3542 164.648 60.7656ZM162.352 60.7656C162.352 59.7604 162.188 59.0312 161.859 58.5781C161.531 58.125 161.055 57.8984 160.43 57.8984C159.096 57.8984 158.43 58.8542 158.43 60.7656C158.43 61.7083 158.591 62.4271 158.914 62.9219C159.242 63.4115 159.714 63.6562 160.328 63.6562C161.677 63.6562 162.352 62.6927 162.352 60.7656ZM166.367 65V62.6172H168.625V65H166.367Z" fill="white"/>
<path d="M4.49219 74.6016V0.03125H25.6641V7.45312H14.8828V67.1406H25.6641V74.6016H4.49219ZM23.2422 114.602V107.141H34.1016V47.4531H23.2422V40.0312H44.4141V114.602H23.2422ZM4.49219 154.602V80.0312H25.6641V87.4531H14.8828V147.141H25.6641V154.602H4.49219Z" fill="white"/>
</svg>
